<?xml version="1.0" encoding="UTF-8"?>
<!-- Generator: Adobe Illustrator 27.0.0, SVG Export Plug-In . SVG Version: 6.00 Build 0)  -->
<svg xmlns="http://www.w3.org/2000/svg" xmlns:xlink="http://www.w3.org/1999/xlink" version="1.1" x="0px" y="0px" viewBox="0 0 1508.6 414.9" style="enable-background:new 0 0 1508.6 414.9;" xml:space="preserve">
<style type="text/css">
	.st0{fill:#F908B5;}
</style>
<g id="Camada_2">
</g>
<g id="Camada_1">
	<g>
		<path class="st0" d="M1484.2,213.1c-0.5,0.8-1.2,1.5-1.3,2.3c-6.1,47-51,85.7-96.8,91.5c-41.6,5.2-78.4-4.3-108.6-35.5    c-39.3-40.4-39.5-102.3-1.1-143.6c47.6-51.3,137.4-51.1,183.9,5.3c12.7,15.4,21,32.8,22.9,53.1c0.1,0.8,0.7,1.6,1.1,2.4    C1484.2,196.7,1484.2,204.9,1484.2,213.1z M1366.1,263.5c13.7,0,24.3-2.6,35.1-8.5c37.9-20.9,46.3-67.6,17.7-98.1    c-26.9-28.6-74.5-29.9-102.9-2.7c-24.4,23.4-26.8,60-5.2,84.5C1325.6,255.4,1344.1,263.7,1366.1,263.5z"></path>
		<path class="st0" d="M991.5,234.1c0.5-14.5-1.7-32.4,0.9-50c5.7-38.6,28.4-64.3,61.5-81.1c52.3-26.5,118.1-11.8,153.7,34.1    c13.9,17.9,20.6,38.5,20.8,61.3c0.2,27.6,0.1,55.2,0,82.8c-0.1,17.6-9,27.2-24.9,27c-14.2-0.1-23.6-9.7-23.6-24.5    c-0.1-27.1-1-54.3,0.2-81.4c1.5-34.1-23.7-57.3-46.1-63.8c-30.7-8.9-58.4-3.3-80.5,22c-9.4,10.8-13.9,23.5-13.8,38.1    c0.1,28.8,0.2,57.6,0,86.4c-0.1,12.4-8.4,21.7-19.9,23.1c-13.1,1.6-24-4.8-27.2-16.2c-0.8-2.9-1-6.1-1-9.2    C991.5,267.5,991.5,252.4,991.5,234.1z"></path>
		<path class="st0" d="M690,140.4c-43.1-17.8-90.8,8.6-97.4,49.1c-4.9,30.4,15.9,62.4,47.7,71c26,7,50,2.9,70.9-15.7    c8-7.1,17.2-8.5,26.9-4.9c7.9,2.9,13.4,8.6,14.6,17.7c1,8.1-2.1,14.4-7.9,19.7c-28.5,25.8-62.1,34.1-99.1,30.1    c-33.3-3.7-60.6-19.3-81.1-46.3c-34.8-45.8-25.3-109,21.2-145.3c45.4-35.5,111.2-34.5,155.6,2.4c14.1,11.7,14.6,25.2,1.3,37.5    c-21.4,19.7-42.9,39.4-64.3,59c-8.1,7.4-17.5,8.8-27.5,5.1c-7.8-2.8-12.9-8.5-14.2-17.2c-1.3-8.3,1.6-15,7.7-20.5    c13.8-12.6,27.4-25.4,41.2-38.1C686.7,143.1,688,142.1,690,140.4z"></path>
		<path class="st0" d="M912.9,140.5c-45.8-18.1-91.5,10.5-97.6,48.7c-4.9,30.5,15.4,62.6,47.2,71.3c26,7.1,50.1,3.2,70.9-15.3    c8.9-7.9,19-9.3,29.4-4.2c14.9,7.2,17,24.8,4.8,36.1c-19.6,18.1-42.7,28.4-68.8,30.7c-39.8,3.6-74.9-7.1-103.5-37    c-39.6-41.3-37.8-106.2,3-146.3c45.5-44.7,122.3-44,165.4-6.4c14.3,12.5,15.2,25.3,1.4,38c-21.4,19.7-42.8,39.4-64.3,59    c-7.9,7.2-17.1,8.5-26.9,5.1c-8.1-2.8-13.4-8.6-14.7-17.6c-1.2-8.3,1.9-14.9,7.9-20.4c13.6-12.5,27.1-25.1,40.7-37.6    C909,143.2,910.6,142.2,912.9,140.5z"></path>
		<path class="st0" d="M287.5,167.6c0-39.1,0.5-78.3-0.3-117.4c-0.3-14.4,12-24.9,24.4-24.7c12.7,0.1,25,10.4,24.2,24.9    c-0.9,17.5,0,35-0.3,52.6c-0.1,6.1,0.5,7.4,6.6,4.1c46.4-24.8,92.3-23.9,136.1,5.9c30.7,20.8,46.5,51,46.2,89.4    c-0.2,26.9-0.2,53.8,0,80.7c0.1,10.6-2.7,19.2-13,23.1c-10.7,4-21.2,3.3-30.3-4.7c-4.4-3.9-5.4-9.2-5.4-15c0.1-27.9,0-55.7,0-83.6    c0-32.1-17.6-56.7-48-65c-30.1-8.2-57-1.9-78.4,22.6c-9.2,10.6-13.8,23.2-13.7,37.5c0.1,29.1,0,58.1,0,87.2    c0,12.4-4.3,18.4-15.2,21.9c-11.3,3.5-24.3-0.1-29.9-8.3c-2.7-4-3.1-8.4-3-13C287.5,246.4,287.5,207,287.5,167.6z"></path>
		<path class="st0" d="M59,395.8c-3.4-0.3-7.6-0.8-11-1.1c-1.5-1-3.4-1.1-5-2c-7.6-4.5-12.4-10.5-12.4-20.1    c0.1-59.5-0.4-119.1,0.2-178.6c0.4-35.4,18.4-61.6,45.6-81.7c51.3-38.1,129.4-27,168.9,23.7c33.6,43.2,27,105.3-15.1,141.8    C189.8,313,130.7,318.3,84.8,291c-1.6-0.9-3.2-1.8-5.8-3.2c0,3.8,0,6.8,0,9.8c0,22.3,0,44.6,0,67C78.9,384.8,76.5,388.5,59,395.8z     M151.2,263.6c9.9,0.2,21.6-2.6,32.5-8.6c38.7-21.4,46.4-70.7,15.6-100.2c-23.9-22.9-61.8-26.8-89.8-9.3    c-33.2,20.8-41.2,63.1-17.1,92.2C107.2,255.2,126.1,263.7,151.2,263.6z"></path>
	</g>
</g>
</svg>
